HIERARCHY
ROOT Hips
{
	OFFSET 0.00000 0.00000 0.00000
	CHANNELS 6 Xposition Yposition Zposition Zrotation Yrotation Xrotation 
	JOINT LHipJoint
	{
		OFFSET 0 0 0
		CHANNELS 3 Zrotation Yrotation Xrotation
		JOINT LeftUpLeg
		{
			OFFSET 1.56857 -1.73443 1.15205
			CHANNELS 3 Zrotation Yrotation Xrotation
			JOINT LeftLeg
			{
				OFFSET 2.39362 -6.57643 0.00000
				CHANNELS 3 Zrotation Yrotation Xrotation
				JOINT LeftFoot
				{
					OFFSET 2.50952 -6.89485 0.00000
					CHANNELS 3 Zrotation Yrotation Xrotation
					JOINT LeftToeBase
					{
						OFFSET 0.17171 -0.47178 1.88682
						CHANNELS 3 Zrotation Yrotation Xrotation
						End Site
						{
							OFFSET 0.00000 -0.00000 0.98146
						}
					}
				}
			}
		}
	}
	JOINT RHipJoint
	{
		OFFSET 0 0 0
		CHANNELS 3 Zrotation Yrotation Xrotation
		JOINT RightUpLeg
		{
			OFFSET -1.28153 -1.73443 1.15205
			CHANNELS 3 Zrotation Yrotation Xrotation
			JOINT RightLeg
			{
				OFFSET -2.26861 -6.23296 0.00000
				CHANNELS 3 Zrotation Yrotation Xrotation
				JOINT RightFoot
				{
					OFFSET -2.54143 -6.98254 0.00000
					CHANNELS 3 Zrotation Yrotation Xrotation
					JOINT RightToeBase
					{
						OFFSET -0.23309 -0.64041 1.93119
						CHANNELS 3 Zrotation Yrotation Xrotation
						End Site
						{
							OFFSET -0.00000 -0.00000 1.02013
						}
					}
				}
			}
		}
	}
	JOINT LowerBack
	{
		OFFSET 0 0 0
		CHANNELS 3 Zrotation Yrotation Xrotation
		JOINT Spine
		{
			OFFSET -0.07096 2.10460 -0.27878
			CHANNELS 3 Zrotation Yrotation Xrotation
			JOINT Spine1
			{
				OFFSET -0.00826 2.13662 -0.08279
				CHANNELS 3 Zrotation Yrotation Xrotation
				JOINT Neck
				{
					OFFSET 0 0 0
					CHANNELS 3 Zrotation Yrotation Xrotation
					JOINT Neck1
					{
						OFFSET 0.03239 1.77799 0.24435
						CHANNELS 3 Zrotation Yrotation Xrotation
						JOINT Head
						{
							OFFSET 0.01026 1.74194 -0.49664
							CHANNELS 3 Zrotation Yrotation Xrotation
							End Site
							{
								OFFSET 0.00170 1.83057 -0.19653
							}
						}
					}
				}
				JOINT LeftShoulder
				{
					OFFSET 0 0 0
					CHANNELS 3 Zrotation Yrotation Xrotation
					JOINT LeftArm
					{
						OFFSET 3.19178 1.35907 -0.31412
						CHANNELS 3 Zrotation Yrotation Xrotation
						JOINT LeftForeArm
						{
							OFFSET 4.85247 -0.00000 -0.00000
							CHANNELS 3 Zrotation Yrotation Xrotation
							JOINT LeftHand
							{
								OFFSET 3.55584 -0.00000 0.00000
								CHANNELS 3 Zrotation Yrotation Xrotation
								JOINT LeftFingerBase
								{
									OFFSET 0 0 0
									CHANNELS 3 Zrotation Yrotation Xrotation
									JOINT LeftHandIndex1
									{
										OFFSET 0.69320 -0.00000 0.00000
										CHANNELS 3 Zrotation Yrotation Xrotation
										End Site
										{
											OFFSET 0.55888 -0.00000 0.00000
										}
									}
								}
								JOINT LThumb
								{
									OFFSET 0 0 0
									CHANNELS 3 Zrotation Yrotation Xrotation
									End Site
									{
										OFFSET 0.56741 -0.00000 0.56741
									}
								}
							}
						}
					}
				}
				JOINT RightShoulder
				{
					OFFSET 0 0 0
					CHANNELS 3 Zrotation Yrotation Xrotation
					JOINT RightArm
					{
						OFFSET -3.28999 1.24191 -0.26899
						CHANNELS 3 Zrotation Yrotation Xrotation
						JOINT RightForeArm
						{
							OFFSET -4.64462 -0.00000 0.00000
							CHANNELS 3 Zrotation Yrotation Xrotation
							JOINT RightHand
							{
								OFFSET -3.40703 -0.00000 0.00000
								CHANNELS 3 Zrotation Yrotation Xrotation
								JOINT RightFingerBase
								{
									OFFSET 0 0 0
									CHANNELS 3 Zrotation Yrotation Xrotation
									JOINT RightHandIndex1
									{
										OFFSET -0.61958 -0.00000 0.00000
										CHANNELS 3 Zrotation Yrotation Xrotation
										End Site
										{
											OFFSET -0.49952 -0.00000 0.00000
										}
									}
								}
								JOINT RThumb
								{
									OFFSET 0 0 0
									CHANNELS 3 Zrotation Yrotation Xrotation
									End Site
									{
										OFFSET -0.50715 -0.00000 0.50715
									}
								}
							}
						}
					}
				}
			}
		}
	}
}
MOTION
Frames: 12
Frame Time: 0.05
0.00 0.00 0.00 23.5962 83.2127 23.6127 0.0000 0.0000 0.0000 0.0000 0.0000 0.0000 0.0000 0.0000 0.0000 0.0000 0.0000 0.0000 0.0000 0.0000 0.0000 0.0000 0.0000 0.0000 0.0000 0.0000 0.0000 0.0000 0.0000 0.0000 -0.0000 -0.0000 0.0000 -0.0000 -0.0000 0.0000 -4.6293 1.7013 1.3919 -0.9454 2.2366 0.9941 1.5900 1.1083 0.1026 4.3940 2.5203 -22.1620 -1.5498 2.6277 24.3502 -0.8644 1.4580 11.7326 -0.0000 0.0000 0.0000 -0.0000 0.0000 -0.0000 -0.0000 0.0000 -0.0000 -0.0000 0.0000 0.0000 -0.0000 -0.0000 0.0000 -0.0000 -0.0000 0.0000 -0.0000 0.0000 0.0000 -0.0000 0.0000 0.0000 0.0000 -0.0000 -0.0000 0.0000 -0.0000 -0.0000 0.0000 0.0000 0.0000 0.0000 0.0000 0.0000 0.0000 0.0000 0.0000 0.0000 -0.0000 0.0000
0.00 0.00 0.00 23.5726 83.2619 23.5773 0.0000 0.0000 0.0000 0.0000 0.0000 0.0000 0.0000 0.0000 0.0000 0.0000 0.0000 0.0000 0.0000 0.0000 0.0000 0.0000 0.0000 0.0000 0.0000 0.0000 0.0000 0.0000 0.0000 0.0000 -0.0000 -0.0000 0.0000 -0.0000 -0.0000 0.0000 -4.5938 1.6920 1.4574 -0.9424 2.2183 0.9366 1.5704 1.1018 0.0091 4.2315 2.5397 -22.1720 -1.3743 2.6658 24.4256 -0.7653 1.4845 11.7595 -0.0000 0.0000 0.0000 -87.5580 -2.2414 39.0690 10.6084 -17.6855 -1.6550 -0.0000 -0.0000 17.0022 16.0031 -24.9756 -6.9048 -7.1250 0.0000 -0.0000 -8.2499 4.3548 7.6813 -0.0000 0.0000 0.0000 0.0000 -0.0000 -0.0000 0.0000 -0.0000 -0.0000 0.0000 0.0000 0.0000 0.0000 0.0000 0.0000 0.0000 0.0000 0.0000 0.0000 -0.0000 0.0000
0.00 0.00 0.00 -5.7132 74.4686 -7.5771 0.0000 0.0000 0.0000 -19.1963 7.3949 12.4017 0.1536 2.5254 6.9600 1.2171 9.3997 -26.1893 0.0049 -0.4535 -1.2462 0.0000 0.0000 0.0000 5.9498 -3.1674 4.8054 -0.2771 -3.3856 9.3542 -0.3505 6.4570 -10.7942 -0.0006 0.1561 -0.4288 -10.9960 3.8418 5.5679 -3.7288 4.9244 4.6622 1.9977 2.3438 1.2108 5.5282 3.8131 -20.8715 0.4963 3.5797 23.5213 -0.1629 2.2560 11.1956 0.0000 0.0000 0.0000 -78.4315 2.9560 16.3016 17.1034 -26.9938 -4.1341 -0.0000 0.0000 -13.9909 26.1777 -20.1592 -9.6153 -7.1250 0.0000 -0.0000 -1.4475 7.7373 1.2399 0.0000 0.0000 0.0000 86.5839 -12.3620 34.8042 -23.8367 34.9911 -7.6127 0.0000 -0.0000 -5.7732 -13.0847 -29.5437 6.5379 7.1250 -0.0000 -0.0000 20.3529 -58.9998 -7.1486
0.00 0.00 0.00 -28.5159 81.8299 -30.4567 0.0000 0.0000 0.0000 -9.7696 6.2981 17.0245 1.5180 7.7802 22.0484 0.8474 3.5491 -19.0236 1.6784 -8.1614 -23.2054 0.0000 0.0000 0.0000 16.8249 -12.2939 -1.0591 -0.1214 -2.2463 6.1868 -0.3775 1.1116 -11.2701 -1.0383 -6.4808 18.1860 -8.9462 2.1604 2.9836 -1.6955 2.9148 3.9969 3.2041 1.3024 2.1421 5.0634 3.3945 -18.6656 1.1746 3.1224 21.7175 0.0270 2.0711 10.0844 0.0000 -0.0000 0.0000 -70.1812 -6.3947 37.0337 47.6290 -51.9933 -24.2931 -0.0000 0.0000 -8.2712 23.5838 -24.6814 -10.3311 -7.1250 0.0000 -0.0000 -3.5873 3.3940 3.3754 0.0000 -0.0000 0.0000 78.0767 -15.8516 38.5052 -46.0244 51.2606 -23.0350 0.0000 -0.0000 -6.2595 -9.6227 -32.3410 5.1825 7.1250 -0.0000 -0.0000 26.2384 -60.7397 -10.4812
0.00 0.00 0.00 -49.1119 79.1899 -52.0864 0.0000 0.0000 0.0000 -0.4237 7.7366 10.7035 4.2644 12.5042 37.5399 0.1950 0.3247 -8.4638 0.6363 -5.1038 -14.2049 0.0000 0.0000 0.0000 21.4232 -15.5962 1.2346 -0.1651 -2.6175 7.2157 -0.4633 4.1464 -12.1100 -0.7682 -5.5968 15.6188 -3.6597 1.9775 3.3800 0.1000 2.6494 3.9314 2.1063 1.2673 1.9844 4.0844 3.2226 -20.5716 2.1001 2.7829 19.7315 0.4661 1.8908 9.6877 -0.0000 -0.0000 0.0000 -74.9845 -3.3430 34.7290 35.3205 -45.0396 -15.0397 -0.0000 0.0000 -7.4864 25.4482 -24.6130 -11.2103 -7.1250 0.0000 -0.0000 -2.4408 3.1006 2.3073 -0.0000 -0.0000 0.0000 78.6891 -9.0928 39.3957 -45.9924 51.2455 -23.0101 0.0000 -0.0000 -3.4143 -12.2254 -30.4117 6.2592 7.1250 -0.0000 -0.0000 21.9047 -59.6089 -8.0482
0.00 0.00 0.00 -66.0198 75.0680 -70.5141 0.0000 0.0000 0.0000 8.4164 4.6981 1.2763 8.7858 16.6679 55.3464 -0.1042 -5.7152 2.1029 0.4708 -4.4006 -12.2065 0.0000 0.0000 0.0000 26.7614 -18.3284 4.7800 -0.1701 -2.6568 7.3247 -0.6287 5.5607 -14.1260 -0.8020 -5.7159 15.9623 3.7679 1.3655 5.2528 2.0308 2.0693 4.2047 -0.0995 1.1461 1.4440 4.2859 2.7030 -22.1117 1.6849 1.9936 17.2611 0.1691 1.4343 9.0924 0.0000 0.0000 0.0000 -82.5432 -1.8105 26.7430 18.7149 -29.0629 -4.8916 -0.0000 0.0000 -4.2478 25.9990 -22.7201 -10.6677 -7.1250 0.0000 -0.0000 -1.8611 5.0118 1.6923 0.0000 0.0000 0.0000 81.6119 -2.3290 39.7995 -49.0871 52.6206 -25.4469 0.0000 -0.0000 -0.6985 -12.7400 -30.7257 6.5895 7.1250 -0.0000 -0.0000 21.6149 -60.0171 -8.1478
0.00 0.00 0.00 -60.4651 77.7408 -64.3903 0.0000 0.0000 0.0000 5.4015 3.6132 -9.6715 8.7791 16.6634 55.3229 0.4812 -1.0973 -12.7686 0.5047 -4.5541 -12.6410 0.0000 0.0000 0.0000 22.5740 -17.0568 7.4723 -0.1293 -2.3179 6.3852 -0.8128 4.2826 -16.1296 -0.4838 -4.4603 12.3754 2.6900 1.7468 5.0532 1.2572 2.5132 3.6364 -0.3164 1.3301 0.9671 3.4456 1.9297 -23.6827 2.8842 0.9239 14.9518 0.5632 0.9811 8.5400 0.0000 0.0000 0.0000 -87.3090 3.1863 9.8341 7.3940 -12.5659 -0.8152 -0.0000 -0.0000 28.4997 12.4546 -20.5097 -4.4249 -7.1250 0.0000 -0.0000 -10.2575 9.2846 8.6110 0.0000 0.0000 0.0000 85.4562 0.7199 42.8342 -59.9023 56.2838 -34.2598 0.0000 -0.0000 -3.0620 -15.1704 -29.0401 7.4980 7.1250 -0.0000 -0.0000 17.8114 -58.9950 -6.2152
0.00 0.00 0.00 -52.9232 77.9621 -56.9410 0.0000 0.0000 0.0000 4.3445 1.3576 -11.7050 4.8097 13.1662 39.9939 1.0079 3.8349 -20.7156 0.6312 -5.0836 -14.1470 0.0000 0.0000 0.0000 20.3827 -14.7810 11.2226 -0.0728 -1.7409 4.7900 -0.9148 2.7893 -17.3502 -0.4188 -4.1540 11.5104 3.3022 2.3960 5.7206 0.6591 3.4260 3.2684 -1.3478 1.7855 0.3154 3.7258 1.4782 -25.0020 2.2833 0.3387 12.9359 0.2310 0.6273 8.0640 0.0000 -0.0000 0.0000 -88.2049 14.6161 20.4333 8.4407 -14.2647 -1.0581 -0.0000 -0.0000 40.3263 0.2331 -22.7575 -0.0902 -7.1250 0.0000 -0.0000 -17.8283 8.0746 15.9613 0.0000 -0.0000 0.0000 87.4404 2.0302 47.0939 -68.5676 58.1912 -41.5517 0.0000 -0.0000 -3.5829 -14.2937 -27.8976 6.7981 7.1250 -0.0000 -0.0000 17.9679 -57.7134 -5.7144
0.00 0.00 0.00 -6.6597 71.4824 -13.7481 0.0000 0.0000 0.0000 -11.4214 8.9729 3.0579 1.6356 8.0617 22.9018 1.4483 6.6947 -26.0255 0.5261 -4.6484 -12.9084 0.0000 0.0000 0.0000 4.2793 -6.4958 16.2695 -0.4136 -4.1281 11.4374 -0.5223 -4.9169 -16.3358 -0.2762 -3.3806 9.3402 -3.4838 5.5627 4.0752 -1.8925 7.4040 3.2797 -0.2578 3.6999 0.9239 3.8434 2.0469 -25.6210 0.4813 1.3198 14.9945 -0.2539 0.9132 8.8867 0.0000 0.0000 0.0000 -83.7049 10.9090 23.4794 8.9612 -15.0985 -1.1900 -0.0000 -0.0000 41.0174 4.3185 -25.9267 -1.8910 -7.1250 0.0000 -0.0000 -15.3232 4.7561 14.5408 0.0000 0.0000 0.0000 88.9832 6.6089 47.5372 -18.4981 28.7903 -4.7867 0.0000 0.0000 9.7641 -7.7296 -28.9328 3.7569 7.1250 -0.0000 -0.0000 25.3459 -57.2794 -7.9681
0.00 0.00 0.00 0.0873 74.7784 -8.5961 0.0000 0.0000 0.0000 -18.0208 7.9852 13.2690 0.4417 4.2644 11.8217 1.2012 8.1298 -25.1206 0.1906 -2.8117 -7.7548 0.0000 0.0000 0.0000 0.9865 -6.4308 9.2397 -2.1770 -9.2255 26.5033 0.8128 -17.3583 -14.3903 -4.7865 -13.1393 39.8922 -10.6571 4.5151 4.7762 -3.0476 5.7846 3.5390 2.4659 2.8212 0.3197 4.1125 3.4911 -22.1784 -0.2382 3.6210 21.1610 -0.1979 2.0009 10.5422 -0.0000 0.0000 0.0000 -68.3395 -6.2476 27.5021 26.3651 -37.5670 -9.1093 -0.0000 0.0000 -0.9407 20.0474 -22.2125 -7.8544 -7.1250 0.0000 -0.0000 -5.5326 6.5775 4.8858 -0.0000 0.0000 0.0000 84.9170 -9.4127 29.7284 -15.1728 24.3863 -3.2970 0.0000 0.0000 11.1897 -8.4139 -29.1227 4.1175 7.1250 -0.0000 -0.0000 24.8055 -57.5942 -7.9752
0.00 0.00 0.00 -5.4723 72.6316 -6.2574 0.0000 0.0000 0.0000 -20.0562 5.1369 19.1174 0.0103 0.6569 1.8052 1.3787 12.6214 -29.9271 0.0156 -0.8074 -2.2190 0.0000 0.0000 0.0000 10.7235 -3.3619 -17.5121 -0.7751 -5.6214 15.6897 -0.4528 -0.6182 -12.9501 -0.4555 -4.3297 12.0061 -15.4789 2.7040 6.8237 -5.6152 3.3955 6.2725 2.5033 1.4409 2.4147 6.3773 4.2094 -19.2441 -0.5614 4.8212 31.8477 -0.4140 2.9617 14.3424 0.0000 0.0000 0.0000 -75.4378 -0.8094 53.1190 51.4379 -53.5592 -27.3267 -0.0000 0.0000 -23.2743 33.3582 -19.0892 -12.1504 -7.1250 0.0000 -0.0000 3.2650 7.5043 -2.8153 0.0000 0.0000 0.0000 89.7508 -26.2020 30.0585 -35.7160 45.3167 -15.3202 0.0000 -0.0000 -5.4678 -2.5568 -26.8424 1.1551 7.1250 -0.0000 -0.0000 28.8548 -54.4087 -7.1191
0.00 0.00 0.00 143.2920 79.4302 156.0740 0.0000 0.0000 0.0000 -13.3844 0.5330 -1.6788 2.5596 9.9454 28.8002 -0.0538 5.5866 -6.0627 0.0708 -1.7166 -4.7231 0.0000 0.0000 0.0000 7.4098 -10.1328 -22.6978 -0.2663 -3.3199 9.1707 -0.1284 2.6709 -6.3711 -1.7970 -8.4297 24.0272 -2.1435 1.1851 13.9796 2.0245 1.8793 8.6914 3.0888 1.0362 1.2040 4.7640 -1.9320 -19.8343 7.7533 -6.2220 32.1784 1.3283 -0.5962 14.6739 -0.0000 -0.0000 0.0000 -80.0031 -4.8227 49.3663 12.9253 -21.1777 -2.4262 -0.0000 -0.0000 26.4673 23.5870 -25.5871 -10.6788 -7.1250 0.0000 -0.0000 -3.6950 2.4428 3.5416 -0.0000 -0.0000 0.0000 70.8432 -2.8722 25.6759 -23.5557 34.6909 -7.4522 0.0000 -0.0000 -9.1179 -14.0428 -28.9482 6.9028 7.1250 -0.0000 -0.0000 18.9303 -58.6551 -6.4675
